<?xml version="1.0" encoding="UTF-8"?>
<svg version="1.1" xmlns="http://www.w3.org/2000/svg" width="274" height="92">
<path d="M0 0 C90.42 0 180.84 0 274 0 C274 30.36 274 60.72 274 92 C183.58 92 93.16 92 0 92 C0 61.64 0 31.28 0 0 Z " fill="#011995" transform="translate(0,0)"/>
<path d="M0 0 C3.39283611 1.7214179 5.5018355 4.11689021 7.375 7.4375 C8.59139114 12.42470369 8.46905297 15.63648996 5.9375 20.125 C3.13018647 24.25293708 0.61655448 26.0897016 -4 28 C-8.32749437 28.60736763 -10.36360109 28.3304379 -14.25 26.3125 C-18.46968485 22.76412865 -19.82339482 20.58944665 -20.4375 15.0625 C-20.26004714 10.7794333 -18.77335201 8.29804023 -16 5 C-10.74946923 0.37453242 -6.96518197 -1.04185075 0 0 Z " fill="#ECEDF7" transform="translate(154,33)"/>
<path d="M0 0 C3.66049006 2.13528587 5.38649813 4.14591476 7 8 C7.58196923 12.22494547 7.48910402 15.89951596 5.75 19.8125 C1.71725279 24.85343402 -1.38886454 27.53900398 -7.9375 28.375 C-12.80799943 27.77861231 -15.72862772 25.48326766 -18.875 21.8125 C-20.48160576 17.79598559 -20.67080193 14.26599881 -20 10 C-15.79361436 1.42544465 -9.18845183 -1.53396525 0 0 Z " fill="#F0F1F8" transform="translate(63,33)"/>
<path d="M0 0 C2.75105422 -0.10812003 5.49785087 -0.18734945 8.25 -0.25 C9.02730469 -0.28351562 9.80460937 -0.31703125 10.60546875 -0.3515625 C14.41260712 -0.41664179 16.37197302 -0.43942741 19.5625 1.79296875 C21 4 21 4 20.75 7.5625 C20.5025 8.696875 20.255 9.83125 20 11 C20 11.99 20 12.98 20 14 C20.7734375 14.6496875 20.7734375 14.6496875 21.5625 15.3125 C23 17 23 17 23.0625 19.9375 C21.60761181 24.13100126 19.90668766 24.95697297 16 27 C13.01717703 27.45516083 10.13314564 27.38256235 7.125 27.25 C5.949375 27.22292969 5.949375 27.22292969 4.75 27.1953125 C2.83279811 27.14855148 0.91623285 27.07682003 -1 27 C-0.01 25.515 -0.01 25.515 1 24 C1.36576054 21.68076726 1.36576054 21.68076726 1.4140625 19.11328125 C1.45273438 18.17548828 1.49140625 17.23769531 1.53125 16.27148438 C1.5621875 15.29501953 1.593125 14.31855469 1.625 13.3125 C1.66367188 12.32443359 1.70234375 11.33636719 1.7421875 10.31835938 C1.83645867 7.87909293 1.92206218 5.43983405 2 3 C1.01 2.67 0.02 2.34 -1 2 C-0.67 1.34 -0.34 0.68 0 0 Z " fill="#DFE0F1" transform="translate(75,33)"/>
<path d="M0 0 C3.63 0 7.26 0 11 0 C10.01 1.485 10.01 1.485 9 3 C8.54605448 5.27912938 8.54605448 5.27912938 8.375 7.6875 C8.25125 9.110625 8.1275 10.53375 8 12 C12.29 12 16.58 12 21 12 C21 8.7 21 5.4 21 2 C20.01 1.67 19.02 1.34 18 1 C18 0.67 18 0.34 18 0 C21.63 0 25.26 0 29 0 C28.01 1.485 28.01 1.485 27 3 C26.63423946 5.31923274 26.63423946 5.31923274 26.5859375 7.88671875 C26.54726562 8.82451172 26.50859375 9.76230469 26.46875 10.72851562 C26.42234375 12.19321289 26.42234375 12.19321289 26.375 13.6875 C26.33632812 14.67556641 26.29765625 15.66363281 26.2578125 16.68164062 C26.16354133 19.12090707 26.07793782 21.56016595 26 24 C26.99 24 27.98 24 29 24 C29 24.66 29 25.32 29 26 C25.37 26 21.74 26 18 26 C18.66 24.68 19.32 23.36 20 22 C20.44500285 19.87406942 20.44500285 19.87406942 20.625 17.75 C20.74875 16.5125 20.8725 15.275 21 14 C16.71 14 12.42 14 8 14 C8.103125 15.44375 8.20625 16.8875 8.3125 18.375 C8.39951172 19.59316406 8.39951172 19.59316406 8.48828125 20.8359375 C8.82990528 23.37921338 8.82990528 23.37921338 12 25 C11 26 11 26 8.49609375 26.09765625 C7.48675781 26.08605469 6.47742188 26.07445313 5.4375 26.0625 C4.42558594 26.05347656 3.41367188 26.04445313 2.37109375 26.03515625 C1.58863281 26.02355469 0.80617188 26.01195313 0 26 C0 25.34 0 24.68 0 24 C0.66 23.67 1.32 23.34 2 23 C2.33 16.07 2.66 9.14 3 2 C2.01 1.67 1.02 1.34 0 1 C0 0.67 0 0.34 0 0 Z " fill="#F2F2F9" transform="translate(101,34)"/>
<path d="M0 0 C7.26 0 14.52 0 22 0 C22 2.64 22 5.28 22 8 C21.34 8 20.68 8 20 8 C19.649375 7.195625 19.29875 6.39125 18.9375 5.5625 C17.29150328 2.83013826 17.29150328 2.83013826 14.8046875 2.4453125 C12.54367248 2.21141439 10.27093557 2.09873633 8 2 C8 5.3 8 8.6 8 12 C10.02045442 11.39816251 12.02111039 10.72693904 14 10 C14.33 9.34 14.66 8.68 15 8 C15.66 8 16.32 8 17 8 C17 11.63 17 15.26 17 19 C16.01 18.67 15.02 18.34 14 18 C13.67 17.34 13.34 16.68 13 16 C10.47266765 15.34444881 10.47266765 15.34444881 8 15 C8 18.3 8 21.6 8 25 C14.61958004 24.83040075 14.61958004 24.83040075 20.0625 21.4375 C20.701875 20.633125 21.34125 19.82875 22 19 C22 21.64 22 24.28 22 27 C14.74 27 7.48 27 0 27 C0.495 25.515 0.495 25.515 1 24 C1.66 24 2.32 24 3 24 C3 17.07 3 10.14 3 3 C2.01 2.67 1.02 2.34 0 2 C0 1.34 0 0.68 0 0 Z " fill="#FDFDFE" transform="translate(220,33)"/>
<path d="M0 0 C3.9307074 0.90078711 5.45182539 2.62969047 8 5.6875 C9.74330022 9.17410044 9.5706106 12.88342935 9 16.6875 C6.9375 19.75 6.9375 19.75 4 21.6875 C0.4375 22.3125 0.4375 22.3125 -3 21.6875 C-6.56198121 18.21925514 -7.81779266 15.29699816 -8.375 10.375 C-7.8179378 4.89722171 -5.72694867 1.31242574 0 0 Z " fill="#081F98" transform="translate(56,35.3125)"/>
<path d="M0 0 C2.69990662 1.79993774 4.5418865 3.083773 6 6 C6.51807908 10.79860134 6.61872831 14.76254339 4.4375 19.125 C2 21 2 21 -1.5 21.5 C-5.06871381 20.99018374 -6.53160265 20.56333571 -9 18 C-10.53963497 13.38109508 -10.51266807 8.82341228 -10 4 C-7.42652999 -0.25612348 -4.80716724 -0.78484363 0 0 Z " fill="#051C97" transform="translate(150,36)"/>
<path d="M0 0 C0 2.31 0 4.62 0 7 C-0.99 7 -1.98 7 -3 7 C-3.433125 6.34 -3.86625 5.68 -4.3125 5 C-5.1478125 4.01 -5.1478125 4.01 -6 3 C-9.12586875 2.66602213 -9.12586875 2.66602213 -12 3 C-11.8800808 5.40018203 -11.8800808 5.40018203 -11 8 C-8.79262278 9.82630348 -8.79262278 9.82630348 -6.0625 11.1875 C-1.11392405 13.88607595 -1.11392405 13.88607595 1 16 C1 20.21297326 0.24052194 21.73657121 -2.625 24.875 C-6.58214273 27.36653431 -8.4073238 27.57408452 -13 27 C-16.4375 26 -16.4375 26 -19 25 C-19 22.69 -19 20.38 -19 18 C-18.01 18 -17.02 18 -16 18 C-15.21625 18.825 -14.4325 19.65 -13.625 20.5 C-11.25894289 23.25854622 -11.25894289 23.25854622 -8.1875 23.3125 C-7.465625 23.209375 -6.74375 23.10625 -6 23 C-5.67 21.68 -5.34 20.36 -5 19 C-5.60328125 18.60167969 -6.2065625 18.20335938 -6.828125 17.79296875 C-8.02695313 16.99826172 -8.02695313 16.99826172 -9.25 16.1875 C-10.03890625 15.66542969 -10.8278125 15.14335938 -11.640625 14.60546875 C-12.41921875 14.07566406 -13.1978125 13.54585937 -14 13 C-14.74507812 12.49855469 -15.49015625 11.99710938 -16.2578125 11.48046875 C-18 10 -18 10 -18.625 7.125 C-17.92416403 3.62082013 -16.79526418 2.04076768 -13.921875 -0.09375 C-9.44812475 -2.20332329 -4.55409743 -1.51803248 0 0 Z " fill="#F4F4FA" transform="translate(215,34)"/>
<path d="M0 0 C3.3 0 6.6 0 10 0 C10 0.99 10 1.98 10 3 C9.34 3 8.68 3 8 3 C8.11358476 5.95918198 8.24033086 8.91676783 8.375 11.875 C8.4059375 12.71675781 8.436875 13.55851562 8.46875 14.42578125 C8.50742188 15.23144531 8.54609375 16.03710938 8.5859375 16.8671875 C8.6173584 17.61081543 8.6487793 18.35444336 8.68115234 19.12060547 C8.85419551 21.24010974 8.85419551 21.24010974 11 23 C13.21072977 23.24253813 13.21072977 23.24253813 15.625 23.125 C16.44226563 23.10695313 17.25953125 23.08890625 18.1015625 23.0703125 C19.04128906 23.03550781 19.04128906 23.03550781 20 23 C21.23315333 19.30054001 21.18407267 15.85232442 21.1875 12 C21.20586914 10.91332031 21.20586914 10.91332031 21.22460938 9.8046875 C21.23515833 5.99299702 21.1642464 4.2463696 19 1 C21.64 1 24.28 1 27 1 C26.01 2.485 26.01 2.485 25 4 C24.74583931 7.56551139 24.63376118 11.09148676 24.609375 14.6640625 C24.45118172 19.69109331 23.74055913 22.32272101 20 26 C16.73065722 28.28853994 13.9301848 28.47162218 10 28 C6.05172384 25.87400515 3.48163733 24.26489999 2 20 C1.76458782 17.07820702 1.81185991 14.17872875 1.875 11.25 C1.88402344 10.45722656 1.89304688 9.66445313 1.90234375 8.84765625 C1.92582988 6.89830719 1.96169863 4.94911425 2 3 C1.01 2.67 0.02 2.34 -1 2 C-0.67 1.34 -0.34 0.68 0 0 Z " fill="#DCDDEF" transform="translate(166,33)"/>
<path d="M0 0 C3.96 0 7.92 0 12 0 C11.01 1.485 11.01 1.485 10 3 C9.7294784 5.59864266 9.7294784 5.59864266 9.796875 8.515625 C9.78527344 9.60230469 9.77367187 10.68898438 9.76171875 11.80859375 C9.75395946 14.08723977 9.76155805 16.36599422 9.78515625 18.64453125 C9.6845552 25.19907651 9.17159332 29.15799798 4.48144531 33.91699219 C3 35 3 35 1 35 C1.32145996 34.14390137 1.64291992 33.28780273 1.97412109 32.40576172 C3.01415685 28.95300141 3.31137685 26.10181014 3.4140625 22.5078125 C3.45273437 21.30898438 3.49140625 20.11015625 3.53125 18.875 C3.5621875 17.6375 3.593125 16.4 3.625 15.125 C3.66367187 13.86429688 3.70234375 12.60359375 3.7421875 11.3046875 C3.83616989 8.20326863 3.92183411 5.10185114 4 2 C2.68 1.34 1.36 0.68 0 0 Z " fill="#FAFAFC" transform="translate(27,34)"/>
<path d="M0 0 C3.99068323 1.29697205 3.99068323 1.29697205 5.5 3.8125 C5.1875 7.3125 5.1875 7.3125 4.5 10.8125 C4.5 11.8025 4.5 12.7925 4.5 13.8125 C5.2734375 14.4621875 5.2734375 14.4621875 6.0625 15.125 C7.5 16.8125 7.5 16.8125 7.5625 19.75 C6.15430524 23.80891432 4.22724239 24.83477955 0.5 26.8125 C-0.16 26.8125 -0.82 26.8125 -1.5 26.8125 C-1.5 26.1525 -1.5 25.4925 -1.5 24.8125 C-3.15 24.8125 -4.8 24.8125 -6.5 24.8125 C-6.5 24.4825 -6.5 24.1525 -6.5 23.8125 C-3.035 23.3175 -3.035 23.3175 0.5 22.8125 C0.54254356 20.81295254 0.54080783 18.81208364 0.5 16.8125 C-1.46822886 14.84427114 -4.84808709 15.15001619 -7.5 14.8125 C-7.5 13.8225 -7.5 12.8325 -7.5 11.8125 C-4.035 11.3175 -4.035 11.3175 -0.5 10.8125 C-0.68129815 7.37456661 -0.68129815 7.37456661 -1.5 3.8125 C-3.43597032 2.29955712 -3.43597032 2.29955712 -5.5 1.8125 C-2.5 -0.1875 -2.5 -0.1875 0 0 Z " fill="#E5E6F3" transform="translate(90.5,33.1875)"/>
<path d="M0 0 C3.63 0 7.26 0 11 0 C10.01 1.485 10.01 1.485 9 3 C8.63423946 5.31923274 8.63423946 5.31923274 8.5859375 7.88671875 C8.52792969 9.2934082 8.52792969 9.2934082 8.46875 10.72851562 C8.42234375 12.19321289 8.42234375 12.19321289 8.375 13.6875 C8.31699219 15.16959961 8.31699219 15.16959961 8.2578125 16.68164062 C8.16354133 19.12090707 8.07793782 21.56016595 8 24 C8.99 24 9.98 24 11 24 C11 24.66 11 25.32 11 26 C7.37 26 3.74 26 0 26 C0.66 24.68 1.32 23.36 2 22 C2.20399529 19.74614216 2.20399529 19.74614216 2.0625 17.375 C1.94660336 12.18283058 2.38618283 7.15167984 3 2 C2.01 1.67 1.02 1.34 0 1 C0 0.67 0 0.34 0 0 Z " fill="#FDFDFE" transform="translate(119,34)"/>
<path d="M0 0 C2.52658976 1.12090476 3.99151041 2.52145639 5.92236328 4.49902344 C6.63134766 5.21767578 7.34033203 5.93632812 8.07080078 6.67675781 C8.80041016 7.43150391 9.53001953 8.18625 10.28173828 8.96386719 C11.39935547 10.10178711 11.39935547 10.10178711 12.53955078 11.26269531 C14.37720522 13.13568926 16.20749552 15.0153233 18.03173828 16.90136719 C17.70173828 17.56136719 17.37173828 18.22136719 17.03173828 18.90136719 C14.09943635 17.5801589 12.04508929 16.15498522 9.79736328 13.86230469 C9.22373047 13.28222656 8.65009766 12.70214844 8.05908203 12.10449219 C7.47255859 11.50121094 6.88603516 10.89792969 6.28173828 10.27636719 C5.67974609 9.66535156 5.07775391 9.05433594 4.45751953 8.42480469 C2.97768523 6.92148095 1.50409152 5.41201863 0.03173828 3.90136719 C-5.62955603 8.59903693 -10.82055076 13.6486009 -15.96826172 18.90136719 C-16.62826172 18.57136719 -17.28826172 18.24136719 -17.96826172 17.90136719 C-15.87134602 13.26055832 -12.63997666 10.16808766 -9.09326172 6.58886719 C-8.46806641 5.93080078 -7.84287109 5.27273437 -7.19873047 4.59472656 C-6.58900391 3.97791016 -5.97927734 3.36109375 -5.35107422 2.72558594 C-4.79822754 2.15928467 -4.24538086 1.5929834 -3.67578125 1.00952148 C-1.96826172 -0.09863281 -1.96826172 -0.09863281 0 0 Z " fill="#E6E7F4" transform="translate(115.96826171875,14.0986328125)"/>
<path d="M0 0 C3.375 -0.125 3.375 -0.125 7 0 C9 2 9 2 9.1875 5.0625 C9 8 9 8 8 9 C5.32941149 9.14115161 2.67567762 9.04247107 0 9 C0 6.03 0 3.06 0 0 Z " fill="#031B96" transform="translate(83,48)"/>
<path d="M0 0 C2.875 -0.1875 2.875 -0.1875 6 0 C8.14809171 3.22213757 8.29386153 4.27775401 8 8 C7 9 7 9 3.4375 9.0625 C2.303125 9.041875 1.16875 9.02125 0 9 C0 6.03 0 3.06 0 0 Z " fill="#061D97" transform="translate(83,36)"/>
<path d="M0 0 C0.99 0 1.98 0 3 0 C4.175625 1.2065625 4.175625 1.2065625 5.375 2.4375 C8.10089852 5.09849617 9.2968335 5.68258573 13 6 C13 6.99 13 7.98 13 9 C8.17639811 9.19294408 4.50353262 8.75747614 0 7 C0 4.69 0 2.38 0 0 Z " fill="#DDDEF0" transform="translate(196,52)"/>
<path d="M0 0 C2.64 0 5.28 0 8 0 C7.01 1.485 7.01 1.485 6 3 C5.6373883 4.92744369 5.6373883 4.92744369 5.5859375 7.01171875 C5.54726562 7.76904297 5.50859375 8.52636719 5.46875 9.30664062 C5.4378125 10.09232422 5.406875 10.87800781 5.375 11.6875 C5.33632812 12.48478516 5.29765625 13.28207031 5.2578125 14.10351562 C5.16367506 16.06863475 5.08075368 18.0342854 5 20 C2.18086854 17.18086854 2.62094468 14.34379971 2.5 10.5625 C2.37979563 4.99685789 2.37979563 4.99685789 0 0 Z " fill="#F9F9FC" transform="translate(185,34)"/>
<path d="M0 0 C0.66 0 1.32 0 2 0 C2 3.63 2 7.26 2 11 C1.01 10.67 0.02 10.34 -1 10 C-1.33 9.34 -1.66 8.68 -2 8 C-4.52733235 7.34444881 -4.52733235 7.34444881 -7 7 C-7 6.01 -7 5.02 -7 4 C-6.030625 3.71125 -5.06125 3.4225 -4.0625 3.125 C-0.89335797 2.35785318 -0.89335797 2.35785318 0 0 Z " fill="#B1B4DD" transform="translate(235,41)"/>
<path d="M0 0 C7.26 0 14.52 0 22 0 C22 2.64 22 5.28 22 8 C21.34 8 20.68 8 20 8 C19.01 6.02 18.02 4.04 17 2 C11.39 1.67 5.78 1.34 0 1 C0 0.67 0 0.34 0 0 Z " fill="#C2C4E4" transform="translate(220,33)"/>
<path d="M0 0 C1.32 0.66 2.64 1.32 4 2 C-1 4.5 -1 4.5 -6 7 C-4.60667426 3.63279613 -3.0210714 2.0140476 0 0 Z " fill="#DEDFF0" transform="translate(203,33)"/>
<path d="M0 0 C0.33 0 0.66 0 1 0 C1 2.64 1 5.28 1 8 C-0.5625 6.75 -0.5625 6.75 -2 5 C-1.74853421 2.86254078 -1.54074221 1.54074221 0 0 Z " fill="#F8F8FC" transform="translate(235,44)"/>
</svg>
